<?xml version="1.0" encoding="UTF-8" standalone="no"?>
<svg
   width="659"
   height="440"
   viewBox="0 0 659 440"
   fill="none"
   version="1.1"
   id="svg8"
   xmlns="http://www.w3.org/2000/svg"
   xmlns:svg="http://www.w3.org/2000/svg">
  <defs
     id="defs12" />
  <rect
     x="0.5"
     y="0.5"
     width="657.5"
     height="439"
     rx="23.5"
     stroke="#E1E2E6"
     id="rect4" />
  <path
     d="m 399.38524,196.13841 c -3.391,-2.281 -12.298,-3.253 -18.774,-1.511 -0.348,-6.448 -3.675,-11.882 -9.762,-16.62 l -2.252,-1.511 -1.501,2.267 c -2.95,4.476 -4.194,10.442 -3.755,15.866 0.348,3.342 1.51,7.097 3.755,9.822 -8.43,4.887 -16.199,3.777 -50.608,3.777 h -53.124 c -0.155,7.767 1.094,22.703 10.598,34.863 1.049,1.343 2.2,2.644 3.45,3.895 7.727,7.733 19.403,13.405 36.861,13.419 26.633,0.025 49.453,-14.365 63.334,-49.154 4.569,0.075 16.625,0.817 22.525,-10.578 0.144,-0.192 1.502,-3.022 1.502,-3.022 z m -101.349,-8.016 h -14.939 v 14.93 h 14.939 z m 19.298,0 h -14.939 v 14.93 h 14.939 z m 19.3,0 h -14.938 v 14.93 h 14.938 z m 19.299,0 h -14.937 v 14.93 h 14.939 v -14.93 z m -77.198,0 h -14.938 v 14.93 h 14.938 z m 19.301,-18.857 h -14.939 v 14.93 h 14.939 z m 19.298,0 h -14.939 v 14.93 h 14.939 z m 19.3,0 h -14.938 v 14.93 h 14.938 z m 0,-18.86 h -14.938 v 14.93 h 14.938 z"
     fill="#1d63ed"
     id="path6" />
</svg>
