<?xml version="1.0" standalone="no"?>
<!DOCTYPE svg PUBLIC "-//W3C//DTD SVG 20010904//EN" "http://www.w3.org/TR/2001/REC-SVG-20010904/DTD/svg10.dtd">
<!-- Created using Krita: https://krita.org -->
<svg xmlns="http://www.w3.org/2000/svg" 
    xmlns:xlink="http://www.w3.org/1999/xlink"
    xmlns:krita="http://krita.org/namespaces/svg/krita"
    xmlns:sodipodi="http://sodipodi.sourceforge.net/DTD/sodipodi-0.dtd"
    width="576pt"
    height="576pt"
    viewBox="0 0 576 576">
<defs/>
<path id="path2" transform="matrix(9 0 0 9 68.8935627 71.1154791)" fill="#000000" stroke-opacity="0" stroke="#000000" stroke-width="0" stroke-linecap="square" stroke-linejoin="bevel" d="M24.8618 0C12.1468 0 12.9403 5.51389 12.9403 5.51389L12.956 11.2265L25.0887 11.2265L25.0887 12.9403L8.13388 12.9403C8.13388 12.9403 0 12.0169 0 24.8477C0 37.6753 7.10091 37.2215 7.10091 37.2215L11.3392 37.2215L11.3392 31.2678C11.3392 31.2678 11.1107 24.1669 18.3274 24.1669L30.36 24.1669C30.36 24.1669 37.1213 24.2764 37.1213 17.6325L37.1213 6.64703C37.1213 6.64703 38.148 0 24.8618 0ZM18.1709 3.84078C19.3776 3.84078 20.3543 4.81741 20.3543 6.02411C20.3543 7.23081 19.3776 8.20744 18.1709 8.20744C17.5916 8.20827 17.0358 7.97851 16.6262 7.56888C16.2165 7.15924 15.9868 6.60342 15.9876 6.02411C15.9876 4.81741 16.9642 3.84078 18.1709 3.84078Z" sodipodi:nodetypes="ccccccccccccccccccccc"/><path id="path4" transform="matrix(9 0 0 9 185.38818984253 184.517894930791)" fill="#000000" stroke-opacity="0" stroke="#000000" stroke-width="0" stroke-linecap="square" stroke-linejoin="bevel" d="M12.2779 37.2219C24.9929 37.2219 24.1994 31.708 24.1994 31.708L24.1837 25.9954L12.051 25.9954L12.051 24.2816L29.0042 24.2816C29.0042 24.2816 37.1397 25.205 37.1397 12.3758C37.1397 -0.453445 30.0388 0.00200167 30.0388 0.00200167L25.8005 0.00200167L25.8005 5.95412C25.8005 5.95412 26.029 13.055 18.8122 13.055L6.77968 13.055C6.77968 13.055 0.0183982 12.9455 0.0183982 19.5894L0.0183982 30.5749C0.0183982 30.5749 -1.00831 37.2219 12.2779 37.2219ZM18.9688 33.3811C18.3894 33.3819 17.8336 33.1522 17.424 32.7426C17.0144 32.3329 16.7846 31.7771 16.7854 31.1978C16.7854 29.9927 17.7621 29.016 18.9688 29.016C20.1755 29.016 21.1521 29.9911 21.1521 31.1978C21.1521 32.4061 20.1755 33.3811 18.9688 33.3811Z" sodipodi:nodetypes="ccccccccccccccccccccc"/>
</svg>
